<svg
	xmlns="http://www.w3.org/2000/svg" viewBox="25.56 400.33 1860.49 286.94">
	<defs>
		<linearGradient id="gradient" x1="0" x2="100%" y1="0" y2="0" gradientTransform="rotate(0)">
			<stop stop-color="#530BE8" offset="0%"></stop>
			<stop stop-color="#FA489C" offset="100%"></stop>
		</linearGradient>
	</defs>
	<path id="Path" fill="url(#gradient)" d="M 105.92,681.00            C 105.92,681.00 105.92,478.34 105.92,478.34              105.92,478.34 25.56,478.34 25.56,478.34              25.56,478.34 25.56,406.59 25.56,406.59              25.56,406.59 278.80,406.59 278.80,406.59              278.80,406.59 278.80,478.34 278.80,478.34              278.80,478.34 198.44,478.34 198.44,478.34              198.44,478.34 198.44,681.00 198.44,681.00              198.44,681.00 105.92,681.00 105.92,681.00 Z            M 442.59,687.27            C 420.12,687.27 399.41,683.74 380.47,676.69              361.52,669.64 345.12,659.64 331.27,646.70              317.42,633.77 306.64,618.54 298.94,601.03              291.23,583.52 287.38,564.45 287.38,543.80              287.38,522.89 291.23,503.75 298.94,486.38              306.64,468.99 317.42,453.84 331.27,440.91              345.12,427.97 361.52,417.98 380.47,410.92              399.41,403.86 419.99,400.33 442.20,400.33              464.68,400.33 485.33,403.86 504.14,410.92              522.96,417.98 539.30,427.97 553.14,440.91              566.99,453.84 577.77,468.99 585.48,486.38              593.19,503.75 597.05,522.89 597.05,543.80              597.05,564.45 593.19,583.52 585.48,601.03              577.77,618.54 566.99,633.77 553.14,646.70              539.30,659.64 522.96,669.64 504.14,676.69              485.33,683.74 464.81,687.27 442.59,687.27 Z            M 442.20,612.41            C 450.83,612.41 458.86,610.84 466.31,607.70              473.76,604.56 480.29,600.05 485.91,594.17              491.53,588.30 495.91,581.12 499.05,572.62              502.18,564.12 503.75,554.52 503.75,543.80              503.75,533.09 502.18,523.49 499.05,515.00              495.91,506.50 491.53,499.31 485.91,493.44              480.29,487.55 473.76,483.04 466.31,479.91              458.86,476.77 450.83,475.20 442.20,475.20              433.58,475.20 425.54,476.77 418.09,479.91              410.64,483.04 404.11,487.55 398.50,493.44              392.88,499.31 388.50,506.50 385.36,515.00              382.22,523.49 380.66,533.09 380.66,543.80              380.66,554.52 382.22,564.12 385.36,572.62              388.50,581.12 392.88,588.30 398.50,594.17              404.11,600.05 410.64,604.56 418.09,607.70              425.54,610.84 433.58,612.41 442.20,612.41 Z            M 630.34,681.00            C 630.34,681.00 630.34,406.59 630.34,406.59              630.34,406.59 765.58,406.59 765.58,406.59              796.16,406.59 823.08,412.15 846.33,423.27              869.59,434.37 887.75,450.12 900.81,470.50              913.88,490.89 920.42,515.19 920.42,543.41              920.42,571.90 913.88,596.40 900.81,616.92              887.75,637.43 869.59,653.24 846.33,664.34              823.08,675.45 796.16,681.00 765.58,681.00              765.58,681.00 630.34,681.00 630.34,681.00 Z            M 722.86,608.88            C 722.86,608.88 761.66,608.88 761.66,608.88              774.73,608.88 786.16,606.39 795.95,601.42              805.75,596.45 813.40,589.07 818.89,579.28              824.38,569.48 827.12,557.52 827.12,543.41              827.12,529.55 824.38,517.79 818.89,508.12              813.40,498.46 805.75,491.15 795.95,486.19              786.16,481.22 774.73,478.73 761.66,478.73              761.66,478.73 722.86,478.73 722.86,478.73              722.86,478.73 722.86,608.88 722.86,608.88 Z            M 1098.59,687.27            C 1076.12,687.27 1055.41,683.74 1036.47,676.69              1017.52,669.64 1001.12,659.64 987.27,646.70              973.42,633.77 962.64,618.54 954.94,601.03              947.23,583.52 943.38,564.45 943.38,543.80              943.38,522.89 947.23,503.75 954.94,486.38              962.64,468.99 973.42,453.84 987.27,440.91              1001.12,427.97 1017.52,417.98 1036.47,410.92              1055.41,403.86 1075.99,400.33 1098.20,400.33              1120.68,400.33 1141.33,403.86 1160.14,410.92              1178.96,417.98 1195.30,427.97 1209.14,440.91              1222.99,453.84 1233.77,468.99 1241.48,486.38              1249.19,503.75 1253.05,522.89 1253.05,543.80              1253.05,564.45 1249.19,583.52 1241.48,601.03              1233.77,618.54 1222.99,633.77 1209.14,646.70              1195.30,659.64 1178.96,669.64 1160.14,676.69              1141.33,683.74 1120.81,687.27 1098.59,687.27 Z            M 1098.20,612.41            C 1106.83,612.41 1114.86,610.84 1122.31,607.70              1129.76,604.56 1136.29,600.05 1141.91,594.17              1147.53,588.30 1151.91,581.12 1155.05,572.62              1158.18,564.12 1159.75,554.52 1159.75,543.80              1159.75,533.09 1158.18,523.49 1155.05,515.00              1151.91,506.50 1147.53,499.31 1141.91,493.44              1136.29,487.55 1129.76,483.04 1122.31,479.91              1114.86,476.77 1106.83,475.20 1098.20,475.20              1089.58,475.20 1081.54,476.77 1074.09,479.91              1066.64,483.04 1060.11,487.55 1054.50,493.44              1048.88,499.31 1044.50,506.50 1041.36,515.00              1038.22,523.49 1036.66,533.09 1036.66,543.80              1036.66,554.52 1038.22,564.12 1041.36,572.62              1044.50,581.12 1048.88,588.30 1054.50,594.17              1060.11,600.05 1066.64,604.56 1074.09,607.70              1081.54,610.84 1089.58,612.41 1098.20,612.41 Z            M 1428.64,687.27            C 1406.42,687.27 1385.97,683.80 1367.28,676.89              1348.60,669.96 1332.41,660.10 1318.69,647.30              1304.97,634.48 1294.32,619.32 1286.73,601.81              1279.16,584.30 1275.38,564.96 1275.38,543.80              1275.38,522.63 1279.16,503.29 1286.73,485.78              1294.32,468.27 1305.03,453.12 1318.88,440.31              1332.73,427.51 1349.13,417.65 1368.08,410.72              1387.02,403.79 1407.86,400.33 1430.59,400.33              1457.78,400.33 1482.02,404.90 1503.31,414.05              1524.61,423.20 1542.19,436.26 1556.05,453.25              1556.05,453.25 1496.84,505.39 1496.84,505.39              1488.22,495.45 1478.88,487.94 1468.81,482.84              1458.76,477.75 1447.59,475.20 1435.30,475.20              1425.11,475.20 1415.89,476.77 1407.66,479.91              1399.43,483.04 1392.44,487.62 1386.69,493.62              1380.95,499.64 1376.50,506.82 1373.36,515.19              1370.22,523.55 1368.66,533.09 1368.66,543.80              1368.66,554.00 1370.22,563.34 1373.36,571.83              1376.50,580.32 1380.95,587.57 1386.69,593.58              1392.44,599.59 1399.30,604.23 1407.27,607.50              1415.24,610.77 1424.20,612.41 1434.12,612.41              1444.58,612.41 1454.77,610.64 1464.70,607.11              1474.63,603.58 1485.21,597.50 1496.45,588.88              1496.45,588.88 1548.20,652.39 1548.20,652.39              1531.47,663.62 1512.39,672.24 1490.97,678.25              1469.54,684.26 1448.77,687.27 1428.64,687.27 Z            M 1467.84,640.62            C 1467.84,640.62 1467.84,536.36 1467.84,536.36              1467.84,536.36 1548.20,536.36 1548.20,536.36              1548.20,536.36 1548.20,652.39 1548.20,652.39              1548.20,652.39 1467.84,640.62 1467.84,640.62 Z            M 1731.59,687.27            C 1709.12,687.27 1688.41,683.74 1669.47,676.69              1650.52,669.64 1634.12,659.64 1620.27,646.70              1606.42,633.77 1595.64,618.54 1587.94,601.03              1580.23,583.52 1576.38,564.45 1576.38,543.80              1576.38,522.89 1580.23,503.75 1587.94,486.38              1595.64,468.99 1606.42,453.84 1620.27,440.91              1634.12,427.97 1650.52,417.98 1669.47,410.92              1688.41,403.86 1708.99,400.33 1731.20,400.33              1753.68,400.33 1774.33,403.86 1793.14,410.92              1811.96,417.98 1828.30,427.97 1842.14,440.91              1855.99,453.84 1866.77,468.99 1874.48,486.38              1882.19,503.75 1886.05,522.89 1886.05,543.80              1886.05,564.45 1882.19,583.52 1874.48,601.03              1866.77,618.54 1855.99,633.77 1842.14,646.70              1828.30,659.64 1811.96,669.64 1793.14,676.69              1774.33,683.74 1753.81,687.27 1731.59,687.27 Z            M 1731.20,612.41            C 1739.83,612.41 1747.86,610.84 1755.31,607.70              1762.76,604.56 1769.29,600.05 1774.91,594.17              1780.53,588.30 1784.91,581.12 1788.05,572.62              1791.18,564.12 1792.75,554.52 1792.75,543.80              1792.75,533.09 1791.18,523.49 1788.05,515.00              1784.91,506.50 1780.53,499.31 1774.91,493.44              1769.29,487.55 1762.76,483.04 1755.31,479.91              1747.86,476.77 1739.83,475.20 1731.20,475.20              1722.58,475.20 1714.54,476.77 1707.09,479.91              1699.64,483.04 1693.11,487.55 1687.50,493.44              1681.88,499.31 1677.50,506.50 1674.36,515.00              1671.22,523.49 1669.66,533.09 1669.66,543.80              1669.66,554.52 1671.22,564.12 1674.36,572.62              1677.50,581.12 1681.88,588.30 1687.50,594.17              1693.11,600.05 1699.64,604.56 1707.09,607.70              1714.54,610.84 1722.58,612.41 1731.20,612.41 Z"></path>
</svg>